# xmcd CD database file generated by OrangeCD 6.5
#
# Track frame offsets:
#	150
#	24005
#	37350
#	70239
#	77117
#	103192
#	115130
#	130817
#	150389
#	167633
#	189338
#	207753
#
# Disc length: 2901 seconds
#
# Revision: 0
# Processed by: cddbd v1.5.2PL0 Copyright (c) Steve Scherf et al.
# Submitted via: OrangeCD 6.5
#
DISCID=970b530c
DTITLE=Lucy and Wayne's Smokin' Flames - Lucy and Wayne's Smokin' Flames
DYEAR=2013
DGENRE=
TTITLE0=Mojave
TTITLE1=Glistening Cowgirl
TTITLE2=Trash The Sun
TTITLE3=Rosa Parks Blvd
TTITLE4=Landescape
TTITLE5=Lucy Fur
TTITLE6=Burn This
TTITLE7=Chemicals
TTITLE8=Dark Deeds
TTITLE9=Ivy Pacheko
TTITLE10=For The Dead
TTITLE11=Passion
EXTD=
EXTT0=
EXTT1=
EXTT2=
EXTT3=
EXTT4=
EXTT5=
EXTT6=
EXTT7=
EXTT8=
EXTT9=
EXTT10=
EXTT11=
PLAYORDER=
